<svg width="56" height="45" viewBox="0 0 56 45" fill="none" xmlns="http://www.w3.org/2000/svg">
<g filter="url(#filter0_ii_0_11)">
<path d="M17.591 45C38.724 45 50.2845 27.6828 50.2845 12.6917C50.2845 12.2071 50.2845 11.7156 50.2635 11.231C52.5142 9.61972 54.4567 7.62483 56 5.33981C53.8976 6.25655 51.6697 6.86075 49.3885 7.13279C51.7914 5.71238 53.591 3.47749 54.453 0.843508C52.1955 2.16617 49.7245 3.09468 47.1485 3.58836C45.4166 1.76431 43.1249 0.555931 40.6283 0.150398C38.1317 -0.255135 35.5695 0.164811 33.3387 1.34519C31.1078 2.52556 29.3328 4.40049 28.2886 6.67956C27.2443 8.95862 26.9891 11.5146 27.5625 13.9517C22.9941 13.7251 18.5249 12.5514 14.4446 10.5067C10.3644 8.46201 6.7644 5.59194 3.878 2.08267C2.41269 4.58552 1.96551 7.54608 2.62726 10.3632C3.28901 13.1802 5.01009 15.6426 7.441 17.2503C5.61939 17.1891 3.83782 16.7054 2.24 15.8381V15.9939C2.24314 18.6158 3.16158 21.1562 4.84006 23.1857C6.51854 25.2152 8.85412 26.6094 11.452 27.1325C10.4659 27.4011 9.4473 27.5351 8.4245 27.5305C7.70344 27.5327 6.98383 27.4666 6.2755 27.3332C7.00975 29.5903 8.43946 31.5636 10.3644 32.9769C12.2893 34.3902 14.613 35.1727 17.01 35.2148C12.9379 38.3777 7.9079 40.0932 2.73 40.0849C1.81762 40.0887 0.905881 40.0367 0 39.9291C5.2553 43.2425 11.3585 45.0019 17.591 45Z" fill="url(#paint0_linear_0_11)"/>
</g>
<defs>
<filter id="filter0_ii_0_11" x="-1.91408" y="-2.28111" width="59.8282" height="49.5622" filterUnits="userSpaceOnUse" color-interpolation-filters="sRGB">
<feFlood flood-opacity="0" result="BackgroundImageFix"/>
<feBlend mode="normal" in="SourceGraphic" in2="BackgroundImageFix" result="shape"/>
<feColorMatrix in="SourceAlpha" type="matrix" values="0 0 0 0 0 0 0 0 0 0 0 0 0 0 0 0 0 0 127 0" result="hardAlpha"/>
<feOffset dx="1.91408" dy="-2.28111"/>
<feGaussianBlur stdDeviation="1.48889"/>
<feComposite in2="hardAlpha" operator="arithmetic" k2="-1" k3="1"/>
<feColorMatrix type="matrix" values="0 0 0 0 1 0 0 0 0 1 0 0 0 0 1 0 0 0 0.5 0"/>
<feBlend mode="normal" in2="shape" result="effect1_innerShadow_0_11"/>
<feColorMatrix in="SourceAlpha" type="matrix" values="0 0 0 0 0 0 0 0 0 0 0 0 0 0 0 0 0 0 127 0" result="hardAlpha"/>
<feOffset dx="-1.91408" dy="2.28111"/>
<feGaussianBlur stdDeviation="1.48889"/>
<feComposite in2="hardAlpha" operator="arithmetic" k2="-1" k3="1"/>
<feColorMatrix type="matrix" values="0 0 0 0 0.359216 0 0 0 0 0.359216 0 0 0 0 0.359216 0 0 0 0.5 0"/>
<feBlend mode="normal" in2="effect1_innerShadow_0_11" result="effect2_innerShadow_0_11"/>
</filter>
<linearGradient id="paint0_linear_0_11" x1="44.5871" y1="-7.69545" x2="17.3577" y2="32.6877" gradientUnits="userSpaceOnUse">
<stop stop-color="#777777"/>
<stop offset="1" stop-color="white"/>
</linearGradient>
</defs>
</svg>
