<svg width="69" height="68" viewBox="0 0 69 68" fill="none" xmlns="http://www.w3.org/2000/svg">
<g filter="url(#filter0_dii_0_9)">
<path d="M31.5 13C24.8513 13 24.0152 13.0306 21.4029 13.147C18.7906 13.2695 17.0113 13.6799 15.4525 14.2862C13.8174 14.9013 12.3364 15.866 11.1129 17.1129C9.86673 18.337 8.90214 19.8179 8.28625 21.4525C7.67987 23.0083 7.26644 24.7906 7.147 27.3937C7.03063 30.0122 7 30.8452 7 37.5031C7 44.1548 7.03063 44.9878 7.147 47.6001C7.2695 50.2094 7.67987 51.9887 8.28625 53.5475C8.91406 55.1584 9.75013 56.5243 11.1129 57.8871C12.4727 59.2499 13.8386 60.089 15.4494 60.7137C17.0113 61.3201 18.7876 61.7336 21.3968 61.853C24.0122 61.9694 24.8452 62 31.5 62C38.1548 62 38.9848 61.9694 41.6001 61.853C44.2063 61.7305 45.9917 61.3201 47.5506 60.7137C49.1846 60.0984 50.6646 59.1337 51.8871 57.8871C53.2499 56.5243 54.0859 55.1584 54.7137 53.5475C55.3171 51.9887 55.7305 50.2094 55.853 47.6001C55.9694 44.9878 56 44.1548 56 37.5C56 30.8452 55.9694 30.0122 55.853 27.3968C55.7305 24.7906 55.3171 23.0083 54.7137 21.4525C54.0979 19.8178 53.1333 18.3369 51.8871 17.1129C50.664 15.8655 49.1829 14.9007 47.5475 14.2862C45.9856 13.6799 44.2033 13.2664 41.5971 13.147C38.9817 13.0306 38.1518 13 31.4939 13H31.5031H31.5ZM29.3042 17.4161H31.5031C38.0446 17.4161 38.8194 17.4376 41.4011 17.557C43.7898 17.6642 45.0883 18.0654 45.9519 18.3992C47.0942 18.8432 47.9119 19.3761 48.7694 20.2336C49.6269 21.0911 50.1567 21.9058 50.6008 23.0511C50.9377 23.9117 51.3358 25.2102 51.443 27.5989C51.5624 30.1806 51.5869 30.9554 51.5869 37.4939C51.5869 44.0323 51.5624 44.8102 51.443 47.3919C51.3358 49.7806 50.9346 51.0761 50.6008 51.9397C50.208 53.0035 49.5811 53.9653 48.7664 54.7541C47.9089 55.6116 47.0942 56.1414 45.9489 56.5855C45.0914 56.9224 43.7929 57.3205 41.4011 57.4308C38.8194 57.5471 38.0446 57.5747 31.5031 57.5747C24.9616 57.5747 24.1837 57.5471 21.602 57.4308C19.2133 57.3205 17.9178 56.9224 17.0542 56.5855C15.99 56.1933 15.0272 55.5675 14.2367 54.7541C13.4213 53.9641 12.7934 53.0013 12.3992 51.9366C12.0654 51.0761 11.6642 49.7776 11.557 47.3888C11.4406 44.8071 11.4161 44.0323 11.4161 37.4877C11.4161 30.9462 11.4406 30.1745 11.557 27.5928C11.6673 25.2041 12.0654 23.9056 12.4023 23.0419C12.8463 21.8996 13.3792 21.0819 14.2367 20.2244C15.0942 19.3669 15.9088 18.8371 17.0542 18.3931C17.9178 18.0562 19.2133 17.6581 21.602 17.5478C23.8621 17.4437 24.738 17.4131 29.3042 17.41V17.4161ZM44.5799 21.4831C44.1939 21.4831 43.8115 21.5592 43.4548 21.7069C43.0981 21.8547 42.774 22.0712 42.501 22.3442C42.228 22.6172 42.0115 22.9413 41.8637 23.298C41.716 23.6547 41.6399 24.037 41.6399 24.4231C41.6399 24.8092 41.716 25.1915 41.8637 25.5482C42.0115 25.9049 42.228 26.229 42.501 26.502C42.774 26.775 43.0981 26.9916 43.4548 27.1393C43.8115 27.2871 44.1939 27.3631 44.5799 27.3631C45.3597 27.3631 46.1075 27.0534 46.6588 26.502C47.2102 25.9507 47.5199 25.2029 47.5199 24.4231C47.5199 23.6434 47.2102 22.8956 46.6588 22.3442C46.1075 21.7929 45.3597 21.4831 44.5799 21.4831ZM31.5031 24.9192C29.8342 24.8932 28.1769 25.1994 26.6275 25.8201C25.0781 26.4407 23.6677 27.3633 22.4783 28.5343C21.289 29.7053 20.3444 31.1011 19.6997 32.6406C19.055 34.1801 18.7229 35.8325 18.7229 37.5015C18.7229 39.1706 19.055 40.823 19.6997 42.3625C20.3444 43.902 21.289 45.2978 22.4783 46.4688C23.6677 47.6397 25.0781 48.5624 26.6275 49.183C28.1769 49.8036 29.8342 50.1099 31.5031 50.0838C34.8061 50.0323 37.9564 48.684 40.274 46.33C42.5916 43.9759 43.8906 40.805 43.8906 37.5015C43.8906 34.1981 42.5916 31.0271 40.274 28.6731C37.9564 26.3191 34.8061 24.9708 31.5031 24.9192ZM31.5031 29.3323C33.6693 29.3323 35.7468 30.1928 37.2785 31.7246C38.8102 33.2563 39.6707 35.3338 39.6707 37.5C39.6707 39.6662 38.8102 41.7437 37.2785 43.2754C35.7468 44.8072 33.6693 45.6677 31.5031 45.6677C29.3369 45.6677 27.2594 44.8072 25.7276 43.2754C24.1959 41.7437 23.3354 39.6662 23.3354 37.5C23.3354 35.3338 24.1959 33.2563 25.7276 31.7246C27.2594 30.1928 29.3369 29.3323 31.5031 29.3323Z" fill="url(#paint0_linear_0_9)"/>
</g>
<defs>
<filter id="filter0_dii_0_9" x="0.908406" y="0.309748" width="67.6667" height="67.6667" filterUnits="userSpaceOnUse" color-interpolation-filters="sRGB">
<feFlood flood-opacity="0" result="BackgroundImageFix"/>
<feColorMatrix in="SourceAlpha" type="matrix" values="0 0 0 0 0 0 0 0 0 0 0 0 0 0 0 0 0 0 127 0" result="hardAlpha"/>
<feOffset dx="3.24174" dy="-3.35692"/>
<feGaussianBlur stdDeviation="4.66667"/>
<feColorMatrix type="matrix" values="0 0 0 0 0.179608 0 0 0 0 0.179608 0 0 0 0 0.179608 0 0 0 0.3555 0"/>
<feBlend mode="normal" in2="BackgroundImageFix" result="effect1_dropShadow_0_9"/>
<feBlend mode="normal" in="SourceGraphic" in2="effect1_dropShadow_0_9" result="shape"/>
<feColorMatrix in="SourceAlpha" type="matrix" values="0 0 0 0 0 0 0 0 0 0 0 0 0 0 0 0 0 0 127 0" result="hardAlpha"/>
<feOffset dx="1.24627" dy="-1.29055"/>
<feGaussianBlur stdDeviation="0.897037"/>
<feComposite in2="hardAlpha" operator="arithmetic" k2="-1" k3="1"/>
<feColorMatrix type="matrix" values="0 0 0 0 1 0 0 0 0 1 0 0 0 0 1 0 0 0 1 0"/>
<feBlend mode="normal" in2="shape" result="effect2_innerShadow_0_9"/>
<feColorMatrix in="SourceAlpha" type="matrix" values="0 0 0 0 0 0 0 0 0 0 0 0 0 0 0 0 0 0 127 0" result="hardAlpha"/>
<feOffset dx="-1.24627" dy="1.29055"/>
<feGaussianBlur stdDeviation="0.897037"/>
<feComposite in2="hardAlpha" operator="arithmetic" k2="-1" k3="1"/>
<feColorMatrix type="matrix" values="0 0 0 0 0.644343 0 0 0 0 0.644343 0 0 0 0 0.644343 0 0 0 1 0"/>
<feBlend mode="normal" in2="effect2_innerShadow_0_9" result="effect3_innerShadow_0_9"/>
</filter>
<linearGradient id="paint0_linear_0_9" x1="0.138749" y1="55.3742" x2="34.177" y2="20.1265" gradientUnits="userSpaceOnUse">
<stop stop-color="white"/>
<stop offset="1" stop-color="#B1B1B1"/>
</linearGradient>
</defs>
</svg>
