<svg width="80" height="66" viewBox="0 0 80 66" fill="none" xmlns="http://www.w3.org/2000/svg">
<g filter="url(#filter0_d_0_62)">
<path d="M36.7535 13C28.6923 13 27.6786 13.0294 24.5113 13.141C21.3441 13.2585 19.1867 13.6521 17.2968 14.2337C15.3143 14.8237 13.5187 15.749 12.0353 16.9451C10.5243 18.1192 9.35482 19.5396 8.60809 21.1075C7.87289 22.5997 7.37162 24.3094 7.22681 26.8062C7.08572 29.3178 7.04858 30.1168 7.04858 36.5029C7.04858 42.8832 7.08572 43.6822 7.22681 46.1879C7.37534 48.6906 7.87289 50.3973 8.60809 51.8925C9.36928 53.4376 10.383 54.7477 12.0353 56.0549C13.6839 57.3621 15.34 58.167 17.2931 58.7663C19.1867 59.3479 21.3404 59.7444 24.5039 59.859C27.6749 59.9706 28.6849 60 36.7535 60C44.8221 60 45.8283 59.9706 48.9993 59.859C52.1592 59.7415 54.3239 59.3479 56.2139 58.7663C58.1951 58.176 59.9895 57.2507 61.4717 56.0549C63.124 54.7477 64.1377 53.4376 64.8989 51.8925C65.6303 50.3973 66.1316 48.6906 66.2801 46.1879C66.4212 43.6822 66.4584 42.8832 66.4584 36.5C66.4584 30.1168 66.4212 29.3178 66.2801 26.8092C66.1316 24.3094 65.6303 22.5997 64.8989 21.1075C64.1522 19.5395 62.9827 18.1191 61.4717 16.9451C59.9888 15.7485 58.193 14.8231 56.2102 14.2337C54.3165 13.6521 52.1555 13.2556 48.9956 13.141C45.8246 13.0294 44.8184 13 36.7461 13H36.7572H36.7535ZM34.0912 17.2359H36.7572C44.6884 17.2359 45.6278 17.2564 48.758 17.371C51.6542 17.4738 53.2286 17.8586 54.2757 18.1788C55.6606 18.6048 56.652 19.1159 57.6917 19.9384C58.7314 20.7609 59.3738 21.5422 59.9122 22.6409C60.3206 23.4663 60.8033 24.7118 60.9333 27.0031C61.0781 29.4794 61.1078 30.2226 61.1078 36.4941C61.1078 42.7657 61.0781 43.5118 60.9333 45.9881C60.8033 48.2794 60.3169 49.5219 59.9122 50.3503C59.4359 51.3707 58.6758 52.2933 57.688 53.0499C56.6483 53.8724 55.6606 54.3806 54.2719 54.8065C53.2323 55.1296 51.6579 55.5115 48.758 55.6173C45.6278 55.7289 44.6884 55.7553 36.7572 55.7553C28.826 55.7553 27.8829 55.7289 24.7527 55.6173C21.8565 55.5115 20.2858 55.1296 19.2387 54.8065C17.9484 54.4303 16.7811 53.83 15.8227 53.0499C14.8341 52.2921 14.0728 51.3686 13.5948 50.3474C13.1901 49.5219 12.7037 48.2764 12.5737 45.9852C12.4326 43.5089 12.4029 42.7657 12.4029 36.4882C12.4029 30.2137 12.4326 29.4735 12.5737 26.9972C12.7074 24.7059 13.1901 23.4604 13.5985 22.6321C14.1369 21.5364 14.783 20.7521 15.8227 19.9296C16.8623 19.1071 17.85 18.5989 19.2387 18.1729C20.2858 17.8498 21.8565 17.4679 24.7527 17.3622C27.493 17.2623 28.5549 17.2329 34.0912 17.23V17.2359ZM52.6122 21.1369C52.1441 21.1369 51.6805 21.2098 51.2481 21.3515C50.8156 21.4933 50.4226 21.701 50.0916 21.9628C49.7606 22.2247 49.4981 22.5356 49.3189 22.8777C49.1398 23.2198 49.0476 23.5865 49.0476 23.9569C49.0476 24.3272 49.1398 24.6939 49.3189 25.036C49.4981 25.3782 49.7606 25.6891 50.0916 25.9509C50.4226 26.2128 50.8156 26.4205 51.2481 26.5622C51.6805 26.7039 52.1441 26.7769 52.6122 26.7769C53.5576 26.7769 54.4642 26.4798 55.1327 25.9509C55.8012 25.4221 56.1768 24.7048 56.1768 23.9569C56.1768 23.209 55.8012 22.4917 55.1327 21.9628C54.4642 21.434 53.5576 21.1369 52.6122 21.1369ZM36.7572 24.4327C34.7338 24.4078 32.7244 24.7015 30.8458 25.2968C28.9673 25.8921 27.2573 26.7771 25.8152 27.9002C24.3732 29.0234 23.228 30.3623 22.4463 31.839C21.6646 33.3156 21.262 34.9005 21.262 36.5015C21.262 38.1024 21.6646 39.6873 22.4463 41.164C23.228 42.6406 24.3732 43.9795 25.8152 45.1027C27.2573 46.2259 28.9673 47.1108 30.8458 47.7061C32.7244 48.3014 34.7338 48.5952 36.7572 48.5702C40.7619 48.5208 44.5815 47.2275 47.3915 44.9695C50.2014 42.7116 51.7764 39.6701 51.7764 36.5015C51.7764 33.3329 50.2014 30.2913 47.3915 28.0334C44.5815 25.7754 40.7619 24.4822 36.7572 24.4327ZM36.7572 28.6657C39.3836 28.6657 41.9024 29.4911 43.7596 30.9603C45.6167 32.4295 46.6601 34.4222 46.6601 36.5C46.6601 38.5778 45.6167 40.5705 43.7596 42.0397C41.9024 43.5089 39.3836 44.3343 36.7572 44.3343C34.1308 44.3343 31.612 43.5089 29.7548 42.0397C27.8977 40.5705 26.8543 38.5778 26.8543 36.5C26.8543 34.4222 27.8977 32.4295 29.7548 30.9603C31.612 29.4911 34.1308 28.6657 36.7572 28.6657Z" fill="url(#paint0_linear_0_62)"/>
</g>
<defs>
<filter id="filter0_d_0_62" x="0.95699" y="0.309748" width="78.0765" height="65.6667" filterUnits="userSpaceOnUse" color-interpolation-filters="sRGB">
<feFlood flood-opacity="0" result="BackgroundImageFix"/>
<feColorMatrix in="SourceAlpha" type="matrix" values="0 0 0 0 0 0 0 0 0 0 0 0 0 0 0 0 0 0 127 0" result="hardAlpha"/>
<feOffset dx="3.24174" dy="-3.35692"/>
<feGaussianBlur stdDeviation="4.66667"/>
<feColorMatrix type="matrix" values="0 0 0 0 0.179608 0 0 0 0 0.179608 0 0 0 0 0.179608 0 0 0 0.3555 0"/>
<feBlend mode="normal" in2="BackgroundImageFix" result="effect1_dropShadow_0_62"/>
<feBlend mode="normal" in="SourceGraphic" in2="effect1_dropShadow_0_62" result="shape"/>
</filter>
<linearGradient id="paint0_linear_0_62" x1="-1.2703" y1="53.6446" x2="30.2493" y2="12.387" gradientUnits="userSpaceOnUse">
<stop stop-color="white"/>
<stop offset="1" stop-color="#B1B1B1"/>
</linearGradient>
</defs>
</svg>
