<svg width="629" height="644" viewBox="0 0 629 644" fill="none" xmlns="http://www.w3.org/2000/svg">
<path fill-rule="evenodd" clip-rule="evenodd" d="M277.105 0.0664362C341.149 1.3627 398.621 31.5531 452.615 66.0966C509.966 102.787 568.088 142.211 596.292 204.269C626.49 270.716 643.735 351.511 612.253 417.357C581.639 481.386 498.237 492.548 439.49 532.225C383.716 569.895 344.221 639.356 277.105 643.714C209.093 648.13 148.797 600.647 98.6792 554.354C52.9047 512.072 23.9367 456.124 8.56459 395.666C-6.01029 338.344 -0.583507 279.875 14.3379 222.642C30.1312 162.065 48.6558 99.3005 96.3681 58.8861C145.961 16.8789 212.187 -1.24752 277.105 0.0664362Z" fill="#FCA801" fill-opacity="0.7"/>
</svg>
