<svg width="59" height="51" viewBox="0 0 59 51" fill="none" xmlns="http://www.w3.org/2000/svg">
<g filter="url(#filter0_d_0_23)">
<path d="M26.5 13.4824C21.2082 13.4824 20.5428 13.5019 18.4636 13.576C16.3844 13.6541 14.9682 13.9154 13.7275 14.3016C12.4261 14.6933 11.2473 15.3076 10.2736 16.1018C9.28169 16.8813 8.51395 17.8244 8.02375 18.8655C7.54112 19.8563 7.21206 20.9914 7.117 22.6492C7.02438 24.3168 7 24.8473 7 29.0874C7 33.3236 7.02438 33.8541 7.117 35.5178C7.2145 37.1795 7.54112 38.3127 8.02375 39.3054C8.52344 40.3313 9.18888 41.2012 10.2736 42.0691C11.3558 42.937 12.4429 43.4714 13.7251 43.8693C14.9682 44.2555 16.3819 44.5188 18.4587 44.5949C20.5403 44.669 21.2033 44.6885 26.5 44.6885C31.7967 44.6885 32.4573 44.669 34.5389 44.5949C36.6132 44.5168 38.0343 44.2555 39.2749 43.8693C40.5755 43.4774 41.7534 42.8631 42.7264 42.0691C43.8111 41.2012 44.4766 40.3313 44.9762 39.3054C45.4564 38.3127 45.7855 37.1795 45.883 35.5178C45.9756 33.8541 46 33.3236 46 29.0854C46 24.8473 45.9756 24.3168 45.883 22.6512C45.7855 20.9914 45.4564 19.8563 44.9762 18.8655C44.4861 17.8244 43.7184 16.8813 42.7264 16.1018C41.753 15.3073 40.5741 14.6929 39.2725 14.3016C38.0294 13.9154 36.6108 13.6521 34.5364 13.576C32.4548 13.5019 31.7943 13.4824 26.4951 13.4824H26.5024H26.5ZM24.7523 16.2949H26.5024C31.7089 16.2949 32.3256 16.3085 34.3804 16.3846C36.2817 16.4528 37.3152 16.7083 38.0026 16.9209C38.9117 17.2037 39.5626 17.5431 40.2451 18.0892C40.9276 18.6353 41.3493 19.1541 41.7027 19.8836C41.9708 20.4316 42.2877 21.2586 42.373 22.7799C42.4681 24.424 42.4876 24.9175 42.4876 29.0815C42.4876 33.2456 42.4681 33.741 42.373 35.3852C42.2877 36.9065 41.9684 37.7315 41.7027 38.2815C41.3901 38.959 40.8911 39.5715 40.2426 40.0739C39.5601 40.62 38.9118 40.9574 38.0001 41.2402C37.3176 41.4548 36.2841 41.7083 34.3804 41.7785C32.3256 41.8526 31.7089 41.8702 26.5024 41.8702C21.2959 41.8702 20.6768 41.8526 18.622 41.7785C16.7208 41.7083 15.6897 41.4548 15.0023 41.2402C14.1553 40.9904 13.389 40.5919 12.7598 40.0739C12.1108 39.5707 11.6111 38.9576 11.2973 38.2795C11.0316 37.7315 10.7123 36.9045 10.627 35.3832C10.5344 33.7391 10.5149 33.2456 10.5149 29.0776C10.5149 24.9116 10.5344 24.4201 10.627 22.776C10.7148 21.2547 11.0316 20.4277 11.2998 19.8777C11.6532 19.1502 12.0773 18.6295 12.7598 18.0834C13.4423 17.5373 14.0907 17.1998 15.0023 16.917C15.6897 16.7025 16.7208 16.4489 18.622 16.3787C20.4209 16.3124 21.118 16.2929 24.7523 16.291V16.2949ZM36.9106 18.885C36.6033 18.885 36.299 18.9334 36.0151 19.0275C35.7312 19.1216 35.4732 19.2595 35.2559 19.4334C35.0386 19.6072 34.8663 19.8136 34.7487 20.0408C34.6311 20.268 34.5706 20.5115 34.5706 20.7573C34.5706 21.0032 34.6311 21.2467 34.7487 21.4739C34.8663 21.701 35.0386 21.9074 35.2559 22.0813C35.4732 22.2552 35.7312 22.3931 36.0151 22.4872C36.299 22.5813 36.6033 22.6297 36.9106 22.6297C37.5312 22.6297 38.1264 22.4324 38.5652 22.0813C39.004 21.7302 39.2506 21.2539 39.2506 20.7573C39.2506 20.2608 39.004 19.7845 38.5652 19.4334C38.1264 19.0822 37.5312 18.885 36.9106 18.885ZM26.5024 21.0733C25.1742 21.0567 23.8551 21.2517 22.6219 21.647C21.3887 22.0422 20.2661 22.6298 19.3195 23.3756C18.3729 24.1213 17.6211 25.0103 17.1079 25.9907C16.5948 26.9711 16.3305 28.0235 16.3305 29.0864C16.3305 30.1494 16.5948 31.2017 17.1079 32.1821C17.6211 33.1626 18.3729 34.0515 19.3195 34.7973C20.2661 35.543 21.3887 36.1306 22.6219 36.5259C23.8551 36.9211 25.1742 37.1161 26.5024 37.0996C29.1314 37.0667 31.6388 36.2081 33.4834 34.7089C35.328 33.2097 36.3619 31.1902 36.3619 29.0864C36.3619 26.9826 35.328 24.9632 33.4834 23.464C31.6388 21.9648 29.1314 21.1061 26.5024 21.0733ZM26.5024 23.8838C28.2266 23.8838 29.8801 24.4318 31.0992 25.4073C32.3183 26.3828 33.0033 27.7059 33.0033 29.0854C33.0033 30.465 32.3183 31.7881 31.0992 32.7636C29.8801 33.7391 28.2266 34.2871 26.5024 34.2871C24.7783 34.2871 23.1248 33.7391 21.9057 32.7636C20.6865 31.7881 20.0016 30.465 20.0016 29.0854C20.0016 27.7059 20.6865 26.3828 21.9057 25.4073C23.1248 24.4318 24.7783 23.8838 26.5024 23.8838Z" fill="url(#paint0_linear_0_23)"/>
</g>
<defs>
<filter id="filter0_d_0_23" x="0.908406" y="0.79217" width="57.6667" height="49.8727" filterUnits="userSpaceOnUse" color-interpolation-filters="sRGB">
<feFlood flood-opacity="0" result="BackgroundImageFix"/>
<feColorMatrix in="SourceAlpha" type="matrix" values="0 0 0 0 0 0 0 0 0 0 0 0 0 0 0 0 0 0 127 0" result="hardAlpha"/>
<feOffset dx="3.24174" dy="-3.35692"/>
<feGaussianBlur stdDeviation="4.66667"/>
<feColorMatrix type="matrix" values="0 0 0 0 0.179608 0 0 0 0 0.179608 0 0 0 0 0.179608 0 0 0 0.3555 0"/>
<feBlend mode="normal" in2="BackgroundImageFix" result="effect1_dropShadow_0_23"/>
<feBlend mode="normal" in="SourceGraphic" in2="effect1_dropShadow_0_23" result="shape"/>
</filter>
<linearGradient id="paint0_linear_0_23" x1="1.539" y1="40.4688" x2="22.5281" y2="13.3055" gradientUnits="userSpaceOnUse">
<stop stop-color="white"/>
<stop offset="1" stop-color="#B1B1B1"/>
</linearGradient>
</defs>
</svg>
