<svg width="636" height="728" viewBox="0 0 636 728" fill="none" xmlns="http://www.w3.org/2000/svg">
<path fill-rule="evenodd" clip-rule="evenodd" d="M331.795 6.37638C282.076 16.4752 234.537 67.7372 186.602 84.3059C130.86 103.574 72.7722 77.5486 32.2816 120.26C-6.91418 161.605 -0.923218 221.731 2.53973 278.462C5.38477 325.069 24.0504 367.614 32.2817 413.583C40.9348 461.908 31.2423 513.309 52.5213 557.595C75.4619 605.339 113.009 645.566 157.605 674.404C204.6 704.794 259.15 732.916 314.911 727.273C370.435 721.655 409.727 672.72 457.528 644.056C501.297 617.809 554.485 604.526 586.155 564.62C617.792 524.755 628.17 472.312 633.883 421.837C639.282 374.141 634.445 325.732 618.316 280.498C603.017 237.592 566.255 207.541 543.408 168.097C516.51 121.657 531.98 57.5681 488.083 26.4996C444.734 -4.18061 383.917 -4.21051 331.795 6.37638Z" fill="#FCA801" fill-opacity="0.7"/>
</svg>
