<svg width="644" height="615" viewBox="0 0 644 615" fill="none" xmlns="http://www.w3.org/2000/svg">
<path fill-rule="evenodd" clip-rule="evenodd" d="M313.8 16.5766C383.814 13.9858 461.32 -20.9289 518.827 19.0916C576.414 59.1673 571.798 143.695 592.699 210.668C613.281 276.622 654.645 339.752 639.968 407.266C624.66 477.682 574.141 537.262 513.304 575.883C454.693 613.09 383.217 615.254 313.8 614.327C245.298 613.412 172.037 612.882 118.13 570.604C65.0061 528.94 51.2947 457.557 31.5761 392.988C12.241 329.674 -10.4731 265.342 5.27105 201.041C21.7251 133.841 60.126 69.3707 119.507 33.8675C176.714 -0.335201 247.194 19.0411 313.8 16.5766Z" fill="#FCA801" fill-opacity="0.7"/>
</svg>
