<svg width="34" height="31" viewBox="0 0 34 31" fill="none" xmlns="http://www.w3.org/2000/svg">
<g filter="url(#filter0_ii_0_25)">
<path d="M29.0328 4.78107C27.467 3.37841 25.6023 2.26638 23.5475 1.50978C21.4926 0.753171 19.2887 0.367119 17.064 0.374117C7.74221 0.374117 0.145153 7.11527 0.136615 15.3911C0.136615 18.0417 0.91788 20.6203 2.39289 22.9034L0 30.6885L8.97388 28.6006C11.4564 29.7997 14.2377 30.4283 17.064 30.4289H17.0726C26.3965 30.4289 33.9915 23.6878 34 15.4044C34.0021 13.4302 33.5641 11.4752 32.7113 9.65198C31.8584 7.82874 30.6075 6.17331 29.0306 4.78107H29.0328ZM17.064 27.8863C14.5431 27.887 12.0684 27.2849 9.9003 26.1432L9.38799 25.8704L4.06429 27.1095L5.48594 22.4998L5.15294 22.0243C3.74369 20.0355 2.99837 17.7329 3.00339 15.3835C3.00339 8.51352 9.31542 2.90916 17.0726 2.90916C18.9206 2.90621 20.751 3.22798 22.4582 3.85589C24.1655 4.48381 25.7158 5.40547 27.0198 6.56772C28.3284 7.72544 29.3658 9.10167 30.0722 10.617C30.7785 12.1324 31.1399 13.7569 31.1354 15.3968C31.1268 22.2914 24.8148 27.8863 17.064 27.8863ZM24.7806 18.5381C24.3601 18.3505 22.2831 17.443 21.8925 17.3142C21.504 17.191 21.2201 17.1266 20.9426 17.5017C20.6587 17.875 19.8476 18.7257 19.6042 18.9701C19.3609 19.2221 19.109 19.2505 18.6863 19.0648C18.2658 18.8753 16.9018 18.4813 15.288 17.1986C14.0286 16.2039 13.1855 14.9724 12.9336 14.5991C12.6902 14.224 12.9101 14.0232 13.1214 13.8356C13.3071 13.6689 13.5419 13.396 13.7533 13.18C13.9667 12.964 14.0372 12.8049 14.1759 12.5548C14.3147 12.3009 14.2485 12.0849 14.1439 11.8974C14.0372 11.7098 13.194 9.85872 12.8375 9.11223C12.496 8.37521 12.148 8.47752 11.8876 8.46805C11.6443 8.45479 11.3604 8.45479 11.0765 8.45479C10.8621 8.45952 10.6511 8.50353 10.4568 8.58406C10.2625 8.66459 10.089 8.77991 9.94726 8.92277C9.55876 9.29791 8.47225 10.2054 8.47225 12.0565C8.47225 13.9076 9.98782 15.6867 10.2013 15.9386C10.4105 16.1906 13.1769 19.978 17.4226 21.6074C18.4259 21.9958 19.2157 22.2251 19.8326 22.3994C20.8466 22.6874 21.7623 22.6438 22.4923 22.551C23.3035 22.4411 24.992 21.6415 25.3484 20.7643C25.6985 19.8852 25.6985 19.1349 25.5918 18.9777C25.4872 18.8185 25.2033 18.7257 24.7806 18.5381Z" fill="url(#paint0_linear_0_25)"/>
</g>
<defs>
<filter id="filter0_ii_0_25" x="-1.32138" y="-1.31726" width="36.6428" height="33.697" filterUnits="userSpaceOnUse" color-interpolation-filters="sRGB">
<feFlood flood-opacity="0" result="BackgroundImageFix"/>
<feBlend mode="normal" in="SourceGraphic" in2="BackgroundImageFix" result="shape"/>
<feColorMatrix in="SourceAlpha" type="matrix" values="0 0 0 0 0 0 0 0 0 0 0 0 0 0 0 0 0 0 127 0" result="hardAlpha"/>
<feOffset dx="1.32138" dy="-1.69129"/>
<feGaussianBlur stdDeviation="1.07314"/>
<feComposite in2="hardAlpha" operator="arithmetic" k2="-1" k3="1"/>
<feColorMatrix type="matrix" values="0 0 0 0 1 0 0 0 0 1 0 0 0 0 1 0 0 0 0.5 0"/>
<feBlend mode="normal" in2="shape" result="effect1_innerShadow_0_25"/>
<feColorMatrix in="SourceAlpha" type="matrix" values="0 0 0 0 0 0 0 0 0 0 0 0 0 0 0 0 0 0 127 0" result="hardAlpha"/>
<feOffset dx="-1.32138" dy="1.69129"/>
<feGaussianBlur stdDeviation="1.07314"/>
<feComposite in2="hardAlpha" operator="arithmetic" k2="-1" k3="1"/>
<feColorMatrix type="matrix" values="0 0 0 0 0.538824 0 0 0 0 0.538824 0 0 0 0 0.538824 0 0 0 0.5 0"/>
<feBlend mode="normal" in2="effect1_innerShadow_0_25" result="effect2_innerShadow_0_25"/>
</filter>
<linearGradient id="paint0_linear_0_25" x1="26.2835" y1="-5.00125" x2="8.24087" y2="20.8999" gradientUnits="userSpaceOnUse">
<stop stop-color="#9C9C9C"/>
<stop offset="1" stop-color="white"/>
</linearGradient>
</defs>
</svg>
