<svg width="58" height="51" viewBox="0 0 58 51" fill="none" xmlns="http://www.w3.org/2000/svg">
<g filter="url(#filter0_ii_0_63)">
<path d="M49.0175 7.41426C46.3743 5.05448 43.2265 3.18364 39.7577 1.91075C36.2889 0.637865 32.5684 -0.0116161 28.813 0.000157241C13.0767 0.000157241 0.251993 11.3412 0.237579 25.2642C0.237579 29.7235 1.55644 34.0617 4.04643 37.9026L0.00695801 51L15.1559 47.4874C19.3467 49.5048 24.0417 50.5622 28.813 50.5633H28.8274C44.5673 50.5633 57.3883 39.2222 57.4028 25.2865C57.4064 21.9653 56.667 18.6763 55.2272 15.6089C53.7875 12.5416 51.6758 9.75653 49.0139 7.41426H49.0175ZM28.813 46.2857C24.5573 46.287 20.3798 45.274 16.7198 43.3532L15.8549 42.8942L6.86793 44.9788L9.26783 37.2237L8.70569 36.4236C6.32672 33.0778 5.06854 29.204 5.07702 25.2515C5.07702 13.6936 15.7324 4.26502 28.8274 4.26502C31.947 4.26007 35.0369 4.80139 37.919 5.85778C40.801 6.91417 43.4181 8.46473 45.6195 10.4201C47.8285 12.3678 49.5797 14.6831 50.7721 17.2325C51.9645 19.7818 52.5745 22.5148 52.5669 25.2738C52.5525 36.873 41.8971 46.2857 28.813 46.2857ZM41.8394 30.5586C41.1296 30.2431 37.6234 28.7163 36.964 28.4995C36.3081 28.2923 35.8289 28.1839 35.3604 28.8151C34.8812 29.443 33.5119 30.8742 33.1011 31.2854C32.6903 31.7093 32.2651 31.7571 31.5516 31.4447C30.8417 31.126 28.5391 30.463 25.8149 28.3051C23.6889 26.6316 22.2655 24.5598 21.8403 23.9318C21.4295 23.3007 21.8006 22.9628 22.1574 22.6473C22.4709 22.3668 22.8673 21.9078 23.224 21.5444C23.5844 21.181 23.7033 20.9133 23.9375 20.4925C24.1717 20.0654 24.06 19.702 23.8834 19.3865C23.7033 19.0709 22.2799 15.9567 21.6781 14.7009C21.1016 13.4609 20.5142 13.6331 20.0746 13.6171C19.6638 13.5948 19.1845 13.5948 18.7053 13.5948C18.3434 13.6028 17.9872 13.6768 17.6592 13.8123C17.3311 13.9478 17.0383 14.1418 16.799 14.3821C16.1432 15.0132 14.3091 16.54 14.3091 19.6542C14.3091 22.7684 16.8675 25.7615 17.2279 26.1854C17.581 26.6093 22.2511 32.9811 29.4183 35.7224C31.112 36.3758 32.4452 36.7615 33.4866 37.0547C35.1983 37.5392 36.7442 37.4659 37.9765 37.3097C39.3459 37.1249 42.1962 35.7797 42.798 34.3039C43.3889 32.8249 43.3889 31.5627 43.2088 31.2981C43.0322 31.0304 42.5529 30.8742 41.8394 30.5586Z" fill="url(#paint0_linear_0_63)"/>
</g>
<defs>
<filter id="filter0_ii_0_63" x="-1.31442" y="-1.69129" width="60.0386" height="54.3826" filterUnits="userSpaceOnUse" color-interpolation-filters="sRGB">
<feFlood flood-opacity="0" result="BackgroundImageFix"/>
<feBlend mode="normal" in="SourceGraphic" in2="BackgroundImageFix" result="shape"/>
<feColorMatrix in="SourceAlpha" type="matrix" values="0 0 0 0 0 0 0 0 0 0 0 0 0 0 0 0 0 0 127 0" result="hardAlpha"/>
<feOffset dx="1.32138" dy="-1.69129"/>
<feGaussianBlur stdDeviation="1.07314"/>
<feComposite in2="hardAlpha" operator="arithmetic" k2="-1" k3="1"/>
<feColorMatrix type="matrix" values="0 0 0 0 1 0 0 0 0 1 0 0 0 0 1 0 0 0 0.5 0"/>
<feBlend mode="normal" in2="shape" result="effect1_innerShadow_0_63"/>
<feColorMatrix in="SourceAlpha" type="matrix" values="0 0 0 0 0 0 0 0 0 0 0 0 0 0 0 0 0 0 127 0" result="hardAlpha"/>
<feOffset dx="-1.32138" dy="1.69129"/>
<feGaussianBlur stdDeviation="1.07314"/>
<feComposite in2="hardAlpha" operator="arithmetic" k2="-1" k3="1"/>
<feColorMatrix type="matrix" values="0 0 0 0 0.538824 0 0 0 0 0.538824 0 0 0 0 0.538824 0 0 0 0.5 0"/>
<feBlend mode="normal" in2="effect1_innerShadow_0_63" result="effect2_innerShadow_0_63"/>
</filter>
<linearGradient id="paint0_linear_0_63" x1="44.3765" y1="-9.04317" x2="14.0582" y2="34.629" gradientUnits="userSpaceOnUse">
<stop stop-color="#9C9C9C"/>
<stop offset="1" stop-color="white"/>
</linearGradient>
</defs>
</svg>
