<svg width="802" height="756" viewBox="0 0 802 756" fill="none" xmlns="http://www.w3.org/2000/svg">
<path fill-rule="evenodd" clip-rule="evenodd" d="M417.974 2.22716C362.417 -8.55605 307.734 22.2914 255.114 41.7486C201.404 61.6084 146.477 81.26 104.899 117.991C62.3776 155.555 30.6165 203.147 13.8915 254.852C-2.67487 306.066 -4.74353 361.384 9.40942 413.193C22.9778 462.861 53.7059 508.039 93.0573 544.646C129.188 578.257 187.244 583.23 225.823 614.515C269.492 649.928 280.677 714.494 332.655 738.945C384.255 763.217 448.329 757.856 504.894 745.789C561.099 733.799 607.735 700.785 654.682 670.247C701.845 639.568 756.509 612.536 782.315 565.331C807.979 518.387 803.52 462.407 796.764 410.349C790.647 363.212 760.968 322.795 744.977 277.611C728.941 232.299 738.466 175.911 701.774 141.945C664.856 107.769 598.887 122.291 552.55 99.4793C501.6 74.3961 474.642 13.2261 417.974 2.22716Z" fill="#FCA801" fill-opacity="0.7"/>
</svg>
